# xmcd CD database file
#
# Track frame offsets:
#	150
#	16934
#	31969
#	47104
#	73078
#	93797
#	116941
#	129815
#	146810
#	161644
#	177168
#	196043
#	210257
#
# Disc length: 3015 seconds
#
# Revision: 0
# Processed by: cddbd v1.5.2PL0 Copyright (c) Steve Scherf et al.
# Submitted via: jetAudio 7
#
DISCID=ab0bc50d
DTITLE=SCOTT McCARLEY - SMILING IN THE END
DYEAR=1900
DGENRE=Country
TTITLE0=All Good Boys
TTITLE1=Hit of What You're Smokin'
TTITLE2=Stuck Down in Mobile
TTITLE3=Out There Being Me
TTITLE4=Played in G on Mandolin
TTITLE5=Smiling in the End
TTITLE6=Too Old
TTITLE7=Still Living in the Dream
TTITLE8=Poor Folks
TTITLE9=Lonesome Goodbye
TTITLE10=Nothing Left To Do
TTITLE11=Sing My Songs For Comfort
TTITLE12=[13] Teenage Hurricane
EXTD=
EXTT0=
EXTT1=
EXTT2=
EXTT3=
EXTT4=
EXTT5=
EXTT6=
EXTT7=
EXTT8=
EXTT9=
EXTT10=
EXTT11=
EXTT12=
PLAYORDER=
